<svg width="223" height="114" viewBox="0 0 223 114" fill="none" xmlns="http://www.w3.org/2000/svg">
<path d="M196.7 68.5V56.5C196.7 54.6 195.1 53 193.2 53H183.4C183.6 52.7 183.7 52.4 183.7 52C183.7 51.1 183.7 43 183.6 35.9C183.6 31 183.6 26.7 183.6 26.2C183.6 25.1 183.3 24.2 182.6 23.6C182 23 181.1 22.7 180.1 22.8H179.6C174.9 23 160.4 23.4 148.5 23.4C136.6 23.4 122.1 22.9 117.4 22.8H116.9C115.9 22.8 115 23.1 114.4 23.6C113.8 24.2 113.4 25.1 113.4 26.2C113.4 26.7 113.4 30.3 113.4 34.7C112.8 34.7 110.3 34.7 109.7 34.7C109.7 30.3 109.7 26.7 109.7 26.2C109.7 25.1 109.4 24.2 108.7 23.6C108.1 23 107.2 22.7 106.2 22.8H105.7C100.9 23 86.5 23.5 74.6 23.5C62.7 23.5 48.2 23 43.5 22.9H43C42 22.9 41.1 23.2 40.5 23.7C39.9 24.3 39.5 25.2 39.5 26.3C39.5 26.8 39.5 31.1 39.5 36C39.5 43.1 39.4 51.2 39.4 52.1C39.4 52.4 39.5 52.8 39.7 53.1H29.9C28 53.1 26.4 54.7 26.4 56.6V68.6C24.1 68.8 22.8 70.3 22.8 72.8V86.9C22.8 88.8 24.4 90.4 26.3 90.4H196.8C198.7 90.4 200.3 88.8 200.3 86.9V72.7C200.3 70.2 199 68.7 196.7 68.5ZM27.3 68.5V56.5H195.7V68.4H27.3V68.5ZM114.4 26.2C114.4 25.4 114.6 24.8 115.1 24.3C115.5 23.9 116.1 23.7 116.8 23.7H117.3C122 23.9 136.5 24.3 148.4 24.3C160.3 24.3 174.8 23.8 179.5 23.7H180C180.7 23.7 181.3 23.9 181.7 24.3C182.1 24.7 182.4 25.4 182.4 26.2C182.4 26.7 182.4 31 182.4 35.9C182.4 42.7 182.5 51.1 182.5 52C182.5 52.4 182.1 53 181.7 53H139.6C139.7 52.8 139.7 52.5 139.7 52.3C139.7 49.4 139.7 44.8 139.8 41.5C139.8 39.8 139.8 38.4 139.8 37.7C139.8 35.8 138.6 34.5 136.8 34.5C136.5 34.5 135.5 34.5 133.9 34.5C129.6 34.6 121.3 34.7 114.2 34.7C114.4 30.3 114.4 26.7 114.4 26.2ZM113.8 35.7C121 35.7 129.6 35.6 134 35.5C135.6 35.5 136.7 35.5 136.9 35.5C138.1 35.5 138.9 36.3 138.9 37.7C138.9 38.4 138.9 39.8 138.9 41.5C138.9 44.8 138.8 49.3 138.8 52.3C138.8 52.8 138.7 52.9 138.7 53C138.7 53 138.6 53.1 138.5 53.1H84.5C84.4 53.1 84.3 53.1 84.3 53C84.3 53 84.1 52.8 84.2 52.3C84.2 49.4 84.2 44.8 84.1 41.5C84.1 39.8 84.1 38.4 84.1 37.7C84.1 36.3 84.8 35.5 86.1 35.5C86.4 35.5 87.4 35.5 89 35.5C93.4 35.6 102 35.7 109.2 35.7C110 35.7 113 35.7 113.8 35.7ZM40.4 52C40.4 51.1 40.4 42.7 40.5 35.9C40.5 31 40.5 26.7 40.5 26.2C40.5 25.4 40.7 24.8 41.2 24.3C41.6 23.9 42.2 23.7 42.9 23.7H43.4C48.1 23.9 62.6 24.3 74.5 24.3C86.5 24.3 100.9 23.8 105.6 23.7H106.1C106.8 23.7 107.4 23.9 107.8 24.3C108.2 24.7 108.5 25.4 108.5 26.2C108.5 26.7 108.5 30.3 108.5 34.7C101.4 34.7 93.1 34.6 88.8 34.5C87.2 34.5 86.1 34.5 85.9 34.5C84.1 34.5 82.9 35.8 82.9 37.7C82.9 38.4 82.9 39.8 82.9 41.5C82.9 44.8 83 49.3 83 52.3C83 52.6 83 52.8 83.1 53H41.2C40.7 53 40.4 52.4 40.4 52ZM29.8 54H193.1C194.2 54 195.1 54.6 195.4 55.6H27.5C27.9 54.6 28.8 54 29.8 54ZM26.8 69.5H196.2C197.9 69.5 198.9 70.2 199.2 71.7C198.6 71.1 197.7 70.7 196.8 70.7H26.3C25.4 70.7 24.5 71.1 23.9 71.7C24.1 70.2 25.1 69.5 26.8 69.5ZM199.3 86.8C199.3 88.2 198.2 89.3 196.8 89.3H26.3C24.9 89.3 23.8 88.2 23.8 86.8V74.2C23.8 72.8 24.9 71.7 26.3 71.7H196.8C198.2 71.7 199.3 72.8 199.3 74.2V86.8Z" fill="black"/>
<path d="M202 1H21C16.9 1 13.5 4.4 13.5 8.5V85.2C13.5 89.3 16.9 92.7 21 92.7H21.5C21.2 93.2 21.1 93.7 21.1 94.4V104.5C21.1 104.8 21.3 105 21.6 105H24C24.3 105 24.5 104.8 24.5 104.5V94.4C24.5 93.9 24.9 92.9 25.6 92.8H197.4C198.1 93 198.5 93.9 198.5 94.4V104.5C198.5 104.8 198.7 105 199 105H201.4C201.7 105 201.9 104.8 201.9 104.5V94.4C201.9 93.7 201.8 93.2 201.5 92.7H202C206.1 92.7 209.5 89.3 209.5 85.2V8.5C209.5 4.4 206.1 1 202 1ZM23.5 94.4V104H22.1V94.4C22.1 93.6 22.4 92.9 22.9 92.7H24.1C23.7 93.2 23.5 93.9 23.5 94.4ZM200.9 94.4V104H199.5V94.4C199.5 93.9 199.3 93.3 199 92.8H200.2C200.6 92.9 200.9 93.6 200.9 94.4ZM208.5 85.2C208.5 88.8 205.6 91.7 202 91.7H21C17.4 91.7 14.5 88.8 14.5 85.2V8.5C14.5 4.9 17.4 2 21 2H202C205.6 2 208.5 4.9 208.5 8.5V85.2Z" fill="black"/>
</svg>
