<svg width="223" height="114" viewBox="0 0 223 114" fill="none" xmlns="http://www.w3.org/2000/svg">
<path d="M174.34 36.7H159.34C159.44 30.8 159.34 25 158.84 20.8C158.64 19.1 157.34 17.9 155.54 18C153.94 18.1 130.04 18.3 111.34 18.3C92.6404 18.3 68.7404 18.1 67.1404 18C65.4404 17.9 64.0404 19 63.8404 20.8C63.3404 24.9 63.2404 30.7 63.3404 36.7H48.3404C44.7404 36.7 41.8404 39.6 41.8404 43.2V85.4C41.8404 87.8 43.1404 89.8 45.0404 91V91.4V104.6C45.0404 104.9 45.2404 105.1 45.5404 105.1H47.8404C48.1404 105.1 48.3404 104.9 48.3404 104.6V98.7C48.3404 95.8 49.2404 94.5 51.2404 93.9C52.4404 93.6 59.4404 92.7 59.5404 92.7C59.7404 92.7 59.9404 92.5 59.9404 92.2V91.8H162.64V92.2C162.64 92.5 162.84 92.7 163.04 92.7C163.14 92.7 170.14 93.6 171.34 93.9C173.44 94.4 174.24 95.8 174.24 98.7V104.6C174.24 104.9 174.44 105.1 174.74 105.1H177.04C177.34 105.1 177.54 104.9 177.54 104.6V90.9C179.44 89.8 180.74 87.7 180.74 85.3V43.2C180.84 39.6 177.94 36.7 174.34 36.7ZM165.34 37.7C164.04 38.5 163.04 39.7 162.54 41.2L158.54 53.6C158.84 49.1 159.14 43.3 159.24 37.7H165.34ZM66.3404 74.8V64.2C66.3404 63.3 67.1404 62.8 67.8404 62.8H154.84C155.54 62.8 156.34 63.3 156.34 64.2V74.8C156.34 75 156.34 75.3 156.24 75.5H66.4404C66.3404 75.3 66.3404 75.1 66.3404 74.8ZM156.04 62.1C155.64 61.9 155.24 61.8 154.74 61.8H67.8404C67.4404 61.8 66.9404 61.9 66.5404 62.1C67.8404 59.7 71.6404 58.1 77.9404 57.3C85.3404 56.3 98.5404 55.2 111.24 55.2C123.94 55.2 137.24 56.3 144.54 57.3C151.04 58.1 154.74 59.7 156.04 62.1ZM155.04 59.5C155.14 59.5 155.24 59.5 155.24 59.5C155.84 59.5 156.44 59.4 156.94 59.1C156.84 59.7 156.64 60.4 156.64 61C156.14 60.5 155.64 60 155.04 59.5ZM66.1404 61C66.0404 60.4 65.9404 59.7 65.8404 59.1C66.4404 59.4 67.0404 59.5 67.7404 59.5C67.0404 60 66.5404 60.5 66.1404 61ZM155.94 76.5C155.34 77.6 154.24 78.3 152.94 78.3H69.8404C68.5404 78.3 67.4404 77.6 66.8404 76.5H155.94ZM64.8404 20.9C64.9404 19.9 65.7404 18.9 67.0404 19C68.6404 19.1 92.6404 19.3 111.34 19.3C130.04 19.3 154.04 19 155.64 19C157.04 18.9 157.74 19.9 157.84 20.9C158.84 30.1 158.24 47.4 157.34 56.4C157.24 57.2 157.04 57.8 156.64 58.1C155.84 58.7 154.44 58.5 153.04 58.2L152.54 58.1C150.54 57.3 147.94 56.6 144.74 56.2C137.34 55.2 124.14 54.1 111.24 54.1C98.3404 54.1 85.2404 55.3 77.8404 56.3C74.6404 56.7 72.0404 57.3 70.0404 58.2L69.5404 58.3C68.1404 58.5 66.7404 58.8 65.9404 58.2C65.5404 57.9 65.2404 57.3 65.2404 56.5C64.4404 47.4 63.8404 30.1 64.8404 20.9ZM63.3404 37.7C63.4404 43.4 63.7404 49.1 64.0404 53.6L60.0404 41.2C59.5404 39.7 58.5404 38.5 57.2404 37.7H63.3404ZM50.9404 92.9C48.3404 93.5 47.2404 95.3 47.2404 98.6V104H46.0404V91.4C46.7404 91.7 47.5404 91.8 48.3404 91.8H58.6404C56.8404 92.1 52.0404 92.7 50.9404 92.9ZM176.64 104H175.34V98.6C175.34 95.3 174.24 93.5 171.64 92.9C170.64 92.7 165.84 92 163.94 91.8H174.24C175.04 91.8 175.84 91.6 176.54 91.4V104H176.64ZM179.84 85.3C179.84 88.3 177.34 90.8 174.34 90.8H48.3404C45.3404 90.8 42.8404 88.3 42.8404 85.3V43.2C42.8404 40.2 45.3404 37.7 48.3404 37.7H53.8404C56.2404 37.7 58.3404 39.2 59.0404 41.5L64.3404 57.9C64.9404 59.8 65.2404 61.8 65.2404 63.9V74.8C65.2404 75.2 65.3404 75.6 65.4404 76C65.4404 76.1 65.4404 76.2 65.5404 76.2C66.1404 78 67.8404 79.2 69.7404 79.2H152.74C154.74 79.2 156.34 77.9 156.94 76.2C156.94 76.1 157.04 76 157.04 76C157.14 75.6 157.24 75.2 157.24 74.8V64.2V63.9C157.24 61.9 157.54 59.9 158.14 57.9L163.44 41.5C164.14 39.2 166.24 37.7 168.64 37.7H174.14C177.24 37.7 179.64 40.1 179.64 43.2V85.3H179.84Z" fill="black"/>
</svg>
