<svg width="227" height="20" viewBox="0 0 227 20" fill="none" xmlns="http://www.w3.org/2000/svg">
<path d="M95.2266 0C90.841 0 87.5547 3.15109 87.5547 7.12522V12.8748C87.5547 16.8489 90.841 20 95.2266 20C99.6123 20 102.899 16.8489 102.899 12.8748V7.12522C102.899 3.14521 99.6005 0 95.2266 0ZM99.6123 12.8748C99.6123 15.2263 97.6899 16.99 95.2266 16.99C92.7634 16.99 90.841 15.2263 90.841 12.8748V7.12522C90.841 4.77366 92.7634 3.01 95.2266 3.01C97.6899 3.01 99.6123 4.77366 99.6123 7.12522V12.8748Z" fill="#231F20"/>
<path d="M137.137 0C132.757 0 129.494 3.15109 129.494 7.12522V12.8748C129.494 16.8489 132.78 20 137.137 20C141.493 20 144.779 16.8489 144.779 12.8748V7.12522C144.809 3.14521 141.522 0 137.137 0ZM141.522 12.8748C141.522 15.2263 139.606 16.99 137.137 16.99C136.577 17.0161 136.017 16.9294 135.492 16.7351C134.966 16.5409 134.484 16.243 134.076 15.8592C133.667 15.4754 133.34 15.0135 133.114 14.5008C132.887 13.9882 132.766 13.4352 132.757 12.8748V7.12522C132.766 6.56479 132.887 6.01183 133.114 5.49917C133.34 4.9865 133.667 4.52457 134.076 4.14076C134.484 3.75695 134.966 3.4591 135.492 3.26486C136.017 3.07061 136.577 2.98395 137.137 3.01C139.606 3.01 141.522 4.77366 141.522 7.12522V12.8748Z" fill="#231F20"/>
<path d="M116.184 0C111.663 0 108.377 3.15109 108.377 7.26043V19.3122C108.377 19.3844 108.405 19.4538 108.456 19.5055C108.506 19.5571 108.575 19.5869 108.647 19.5885H111.387C111.423 19.5885 111.459 19.5813 111.493 19.5674C111.526 19.5536 111.557 19.5332 111.582 19.5075C111.608 19.4819 111.628 19.4514 111.642 19.4179C111.656 19.3844 111.663 19.3485 111.663 19.3122V7.26043C111.663 4.79718 113.58 3.01587 116.184 3.01587C118.788 3.01587 120.705 4.77954 120.705 7.26043V19.3122C120.704 19.3482 120.711 19.384 120.724 19.4175C120.737 19.451 120.757 19.4815 120.782 19.5072C120.807 19.5329 120.837 19.5534 120.871 19.5673C120.904 19.5813 120.939 19.5885 120.975 19.5885H123.703C123.777 19.5885 123.847 19.5594 123.899 19.5075C123.95 19.4557 123.98 19.3855 123.98 19.3122V7.26043C123.991 3.14521 120.705 0 116.184 0Z" fill="#231F20"/>
<path d="M158.096 0C153.575 0 150.289 3.15109 150.289 7.26043V19.3122C150.289 19.3485 150.296 19.3844 150.31 19.4179C150.324 19.4514 150.344 19.4819 150.37 19.5075C150.396 19.5332 150.426 19.5536 150.46 19.5674C150.493 19.5813 150.529 19.5885 150.565 19.5885H153.305C153.377 19.5869 153.446 19.5571 153.497 19.5055C153.547 19.4538 153.575 19.3844 153.575 19.3122V7.26043C153.575 4.79718 155.492 3.01587 158.096 3.01587C160.701 3.01587 162.617 4.77954 162.617 7.26043V19.3122C162.617 19.3844 162.645 19.4538 162.696 19.5055C162.746 19.5571 162.815 19.5869 162.888 19.5885H165.627C165.7 19.5885 165.771 19.5594 165.822 19.5075C165.874 19.4557 165.903 19.3855 165.903 19.3122V7.26043C165.903 3.14521 162.617 0 158.096 0Z" fill="#231F20"/>
<path d="M179.053 0C174.667 0 171.41 3.15109 171.41 7.12522V12.8748C171.41 16.8489 174.696 20 179.053 20C183.409 20 186.695 16.8489 186.695 12.8748V7.12522C186.719 3.14521 183.432 0 179.053 0ZM183.433 12.8748C183.424 13.4352 183.302 13.9882 183.076 14.5008C182.849 15.0135 182.522 15.4754 182.113 15.8592C181.705 16.243 181.224 16.5409 180.698 16.7351C180.172 16.9294 179.613 17.0161 179.053 16.99C176.584 16.99 174.667 15.2263 174.667 12.8748V7.12522C174.667 4.77366 176.584 3.01 179.053 3.01C179.613 2.98395 180.172 3.07061 180.698 3.26486C181.224 3.4591 181.705 3.75695 182.113 4.14076C182.522 4.52457 182.849 4.9865 183.076 5.49917C183.302 6.01183 183.424 6.56479 183.433 7.12522V12.8748Z" fill="#231F20"/>
<path d="M207.772 0.406265H205.314C205.2 0.405409 205.088 0.44079 204.996 0.507331C204.903 0.573872 204.833 0.66815 204.797 0.776634L199.541 15.6973C199.523 15.7505 199.489 15.7967 199.443 15.8295C199.397 15.8622 199.342 15.8798 199.286 15.8798C199.229 15.8798 199.174 15.8622 199.129 15.8295C199.083 15.7967 199.048 15.7505 199.03 15.6973L193.798 0.776634C193.762 0.66815 193.692 0.573872 193.599 0.507331C193.506 0.44079 193.395 0.405409 193.28 0.406265H190.823C190.757 0.406372 190.693 0.42216 190.634 0.452315C190.576 0.482471 190.526 0.526119 190.488 0.57962C190.45 0.63312 190.425 0.694922 190.416 0.759873C190.407 0.824823 190.413 0.891041 190.435 0.953003L196.637 18.6661C196.732 18.9337 196.907 19.1655 197.138 19.3297C197.37 19.4939 197.647 19.5825 197.931 19.5832H200.641C200.925 19.5825 201.201 19.4939 201.433 19.3297C201.664 19.1655 201.839 18.9337 201.934 18.6661L208.136 0.953003C208.157 0.892878 208.164 0.828689 208.156 0.765493C208.148 0.702297 208.126 0.641819 208.09 0.588819C208.055 0.535819 208.008 0.491744 207.953 0.460066C207.897 0.428387 207.835 0.409971 207.772 0.406265V0.406265Z" fill="#231F20"/>
<path d="M226.767 19.0365L220.571 1.32336C220.476 1.05573 220.301 0.823926 220.069 0.659733C219.838 0.49554 219.561 0.406999 219.277 0.40625H216.591C216.307 0.406999 216.03 0.49554 215.799 0.659733C215.567 0.823926 215.392 1.05573 215.297 1.32336L209.101 19.0365C209.079 19.0984 209.073 19.1646 209.082 19.2296C209.091 19.2945 209.116 19.3563 209.154 19.4098C209.192 19.4633 209.242 19.507 209.3 19.5372C209.359 19.5673 209.423 19.5831 209.489 19.5832H211.946C212.06 19.5832 212.172 19.5474 212.264 19.481C212.357 19.4146 212.427 19.3208 212.464 19.2128L217.69 4.2922C217.71 4.23956 217.745 4.19421 217.791 4.16219C217.838 4.13018 217.892 4.11302 217.949 4.11302C218.005 4.11302 218.06 4.13018 218.106 4.16219C218.152 4.19421 218.188 4.23956 218.207 4.2922L223.434 19.2128C223.471 19.3203 223.541 19.4136 223.634 19.4799C223.726 19.5462 223.837 19.5823 223.951 19.5832H226.408C226.472 19.5786 226.533 19.5596 226.587 19.5276C226.642 19.4955 226.688 19.4513 226.723 19.3985C226.758 19.3456 226.78 19.2854 226.787 19.2226C226.795 19.1598 226.788 19.0961 226.767 19.0365V19.0365Z" fill="#231F20"/>
<path d="M81.6638 0.40625H79.3122C79.1053 0.410637 78.9028 0.466723 78.7231 0.569405C78.5434 0.672087 78.3922 0.818101 78.2834 0.994139L72.4398 9.94769C72.4145 9.98528 72.3804 10.0161 72.3404 10.0374C72.3004 10.0587 72.2558 10.0698 72.2105 10.0698C72.1652 10.0698 72.1206 10.0587 72.0806 10.0374C72.0406 10.0161 72.0065 9.98528 71.9812 9.94769L66.1376 0.994139C66.0282 0.817275 65.8762 0.670742 65.6954 0.568015C65.5146 0.465287 65.3109 0.409661 65.1029 0.40625H62.7514C62.6422 0.40625 62.5376 0.449606 62.4604 0.526782C62.3832 0.603957 62.3398 0.708628 62.3398 0.817771V19.1717C62.3398 19.2808 62.3832 19.3855 62.4604 19.4627C62.5376 19.5398 62.6422 19.5832 62.7514 19.5832H65.2205C65.3296 19.5832 65.4343 19.5398 65.5115 19.4627C65.5887 19.3855 65.632 19.2808 65.632 19.1717V5.60907L70.294 12.6637C70.4216 12.8474 70.5923 12.997 70.7911 13.0995C70.99 13.202 71.2108 13.2542 71.4345 13.2516H72.9748C73.1984 13.2542 73.4193 13.202 73.6181 13.0995C73.8169 12.997 73.9876 12.8474 74.1153 12.6637L78.7772 5.60907V19.1717C78.7772 19.2808 78.8206 19.3855 78.8978 19.4627C78.9749 19.5398 79.0796 19.5832 79.1888 19.5832H81.652C81.7612 19.5832 81.8658 19.5398 81.943 19.4627C82.0202 19.3855 82.0635 19.2808 82.0635 19.1717V0.817771C82.0636 0.710635 82.0218 0.607705 81.9472 0.530859C81.8725 0.454013 81.7709 0.409311 81.6638 0.40625V0.40625Z" fill="#231F20"/>
<path d="M8.93005 2.01119C8.67427 1.52661 8.29107 1.12104 7.82177 0.83821C7.35246 0.555383 6.81485 0.406031 6.26691 0.40625H1.64022C1.42433 0.406249 1.21056 0.448866 1.01118 0.531662C0.811793 0.614458 0.630719 0.735801 0.478335 0.888732C0.32595 1.04166 0.205253 1.22317 0.123171 1.42285C0.0410889 1.62253 -0.000763266 1.83645 1.05371e-05 2.05234V17.9254C-0.000763266 18.1412 0.0410889 18.3552 0.123171 18.5548C0.205253 18.7545 0.32595 18.936 0.478335 19.089C0.630719 19.2419 0.811793 19.3632 1.01118 19.446C1.21056 19.5288 1.42433 19.5714 1.64022 19.5714H14.5738C14.9516 19.5715 15.3231 19.474 15.6521 19.2882C15.9812 19.1025 16.2566 18.8349 16.4518 18.5114C16.647 18.1878 16.7553 17.8194 16.7661 17.4417C16.777 17.064 16.6901 16.6899 16.5138 16.3557L8.93005 2.01119Z" fill="#231F20"/>
<path d="M35.5214 0.40625H30.8947C30.3467 0.406031 29.8091 0.555383 29.3398 0.83821C28.8705 1.12104 28.4873 1.52661 28.2315 2.01119L20.6419 16.3674C20.4656 16.7017 20.3787 17.0757 20.3896 17.4534C20.4004 17.8311 20.5087 18.1996 20.7039 18.5231C20.8991 18.8466 21.1745 19.1142 21.5036 19.3C21.8326 19.4857 22.2041 19.5833 22.5819 19.5832H35.5155C35.7317 19.5832 35.9457 19.5406 36.1454 19.4579C36.3451 19.3752 36.5266 19.2539 36.6794 19.1011C36.8323 18.9482 36.9535 18.7668 37.0363 18.567C37.119 18.3673 37.1616 18.1533 37.1616 17.9371V2.0641C37.1631 1.84744 37.1219 1.6326 37.0402 1.43191C36.9586 1.23122 36.8381 1.04863 36.6857 0.894608C36.5333 0.740584 36.352 0.618162 36.1522 0.534358C35.9524 0.450554 35.738 0.407019 35.5214 0.40625V0.40625Z" fill="#231F20"/>
</svg>
