<svg width="223" height="114" viewBox="0 0 223 114" fill="none" xmlns="http://www.w3.org/2000/svg">
<path d="M171.032 72.3C175.132 71 175.632 66 175.632 62.1C175.632 58 175.132 55.4 173.432 53.8L173.332 53.7C171.832 52.2 169.332 51.5 165.432 51.2C157.532 50.4 112.132 50 111.632 50C111.132 50 65.7317 50.4 57.8317 51.2C53.9317 51.5 51.4317 52.2 49.8317 53.7L49.7317 53.8C48.1317 55.4 47.6317 58 47.6317 62.1C47.6317 66 48.1317 71 52.2317 72.3C50.2317 73.3 49.2317 75.3 49.2317 78.5V81V104.5C49.2317 104.8 49.4317 105 49.7317 105H53.3317C53.6317 105 53.8317 104.8 53.8317 104.5V84.9H66.0317H157.332H169.532V104.5C169.532 104.8 169.732 105 170.032 105H173.632C173.932 105 174.132 104.8 174.132 104.5V81V78.5C174.032 75.3 173.032 73.3 171.032 72.3ZM66.4317 82.6H156.732V83.9H66.4317V82.6ZM157.332 80.5C157.032 80.5 156.832 80.7 156.832 81V81.6H66.4317V81C66.4317 80.7 66.2317 80.5 65.9317 80.5H50.2317V78.5C50.2317 77.5 50.3317 76.6 50.5317 75.9H172.732C172.932 76.6 173.032 77.5 173.032 78.5V80.5H157.332ZM57.9317 52.2C65.8317 51.4 111.132 51 111.632 51C112.132 51 157.432 51.4 165.432 52.2C168.232 52.5 170.232 52.9 171.632 53.7H51.6317C53.0317 52.8 55.0317 52.4 57.9317 52.2ZM50.3317 54.6H172.932C174.232 56.1 174.632 58.3 174.632 62.1C174.632 64.9 174.332 67.1 173.532 68.7H49.7317C48.9317 67.1 48.6317 64.9 48.6317 62.1C48.6317 58.3 49.0317 56.1 50.3317 54.6ZM54.6317 71.7C52.7317 71.7 51.2317 71 50.3317 69.7H173.032C172.032 71.1 170.632 71.7 168.732 71.7H54.6317ZM55.3317 72.7H167.932C170.132 72.7 171.532 73.4 172.332 75H50.9317C51.6317 73.4 53.1317 72.7 55.3317 72.7ZM53.2317 83.9C52.9317 83.9 52.7317 84.1 52.7317 84.4V104H50.2317V81.5H65.5317V83.9H53.2317ZM173.032 104H170.432V84.4C170.432 84.1 170.232 83.9 169.932 83.9H157.732V81.5H173.032V104Z" fill="black"/>
</svg>
